<svg height="512" viewBox="0 0 512 512" width="512" xmlns="http://www.w3.org/2000/svg">
   <path d="m496 232h-9.247c7.5-48.516-19.613-94.103-63.039-112.113 2.145-4.641 4.655-8.183 7.442-9.577 11.566-5.783 17.449-6.324 17.507-6.329-.957.081-.663 3.478-.663-31.981-9.568 0-31.728 7.343-41.878 17.537-13.622-24.735-39.944-41.537-70.122-41.537h-32c-8.837 0-16 7.163-16 16 0 27.972 14.442 52.622 36.249 66.926-11.098 7.818-20.606 17.747-27.931 29.201-22.212-9.349-46.998-10.622-69.787-3.89-25.741-20.466-48.71-44.644-68.348-71.994-14.226-19.8-36.019-33.523-56.143-36.223l-6.408-16.02h8.368c8.836 0 16-7.163 16-16s-7.164-16-16-16c-25.804 0-56.086 0-72 0-8.836 0-16 7.163-16 16s7.164 16 16 16h9.802l-8.425 25.275c-7.739 5.828-15.151 16.845-15.391 37.682-1.137 9.468-7.919 74.573 11.92 137.043h-13.906c-8.836 0-16 7.163-16 16v34.384c0 126.901 102.697 229.616 229.616 229.616h52.768c126.902 0 229.616-102.698 229.616-229.616v-34.384c0-8.837-7.163-16-16-16zm-41.793 0h-140.414c-10.279-45.29 24.327-88 70.207-88 1.285 0 .456-.66.025 7.105-.514 9.176 6.787 16.882 15.988 16.882 8.406-.001 15.456-6.569 15.96-15.067.026-.445.058-.898.093-1.358 29.39 14.685 45.594 47.6 38.141 80.438zm-118.207-152c20.86 0 38.654 13.375 45.258 32h-13.258c-20.86 0-38.654-13.375-45.258-32zm-52.553 109.422c-3.633 13.732-4.436 28.112-2.2 42.578h-93.134c13.868-39.104 57.429-58.212 95.334-42.578zm-151.254-86.51c18.381 25.6 39.47 48.658 62.869 68.808-7.827 5.659-14.824 12.383-20.802 19.995-19.483-21.087-42.858-52.091-62.22-94.371-2.695-5.891-5.995-11.496-9.754-16.654 9.615 2.803 21.535 10.569 29.907 22.222zm-63.812-49.458.622-1.866.992 2.48c-.539-.218-1.077-.417-1.614-.614zm-18.401 42.546c0-9.348 2.197-12.828 2.756-13.232 4.108-1.73 20.946 7.65 30.207 27.895 23.475 51.261 52.532 87.438 75.098 110.415-1.281 3.583-2.375 7.223-3.25 10.923h-91.041c-23.138-61.986-13.77-133.078-13.77-136.001zm430.02 186.384c0 108.966-88.65 197.616-197.616 197.616h-52.768c-108.966 0-197.616-88.65-197.616-197.616v-18.384h448z" />
</svg>