<svg xmlns="http://www.w3.org/2000/svg" width="142.107" height="37.819">
   <path d="M51.024 0a9.19 9.19 0 00-3.704.755 9.295 9.295 0 00-2.986 2.004 9.693 9.693 0 00-2.041 3.023c-.479 1.134-.718 2.357-.718 3.667v18.898c0 1.31.239 2.544.718 3.704a9.825 9.825 0 002.04 2.985 9.825 9.825 0 002.987 2.042 9.606 9.606 0 003.704.717c1.31 0 2.53-.239 3.665-.717a9.701 9.701 0 003.024-2.042 9.288 9.288 0 002.003-2.985 9.189 9.189 0 00.756-3.704V9.449c0-1.31-.252-2.533-.756-3.667a9.18 9.18 0 00-2.003-3.023A9.195 9.195 0 0054.69.755C53.555.25 52.334 0 51.024 0zm0 4.837c.63 0 1.22.126 1.775.378.58.227 1.071.554 1.475.982.428.403.756.895.983 1.475.252.554.377 1.147.377 1.777v18.898c0 .63-.125 1.234-.377 1.814a4.452 4.452 0 01-.983 1.474c-.404.403-.896.73-1.475.982a4.64 4.64 0 01-1.775.34c-.63 0-1.235-.113-1.814-.34a5.386 5.386 0 01-1.475-.982 5.382 5.382 0 01-.982-1.474 4.936 4.936 0 01-.341-1.814V9.449c0-.63.114-1.223.341-1.777.252-.58.579-1.072.982-1.475.428-.428.92-.755 1.475-.982a4.501 4.501 0 011.814-.378zM0 0v28.325a8.44 8.44 0 00.823 3.68 9.841 9.841 0 002.341 2.965c.983.851 2.124 1.527 3.424 2.028 1.33.475 2.746.713 4.248.713 1.503 0 2.903-.238 4.203-.713 1.33-.5 2.487-1.177 3.47-2.028a9.27 9.27 0 002.296-2.966 8.091 8.091 0 00.867-3.679V9.553c0-.626.13-1.213.39-1.764a4.704 4.704 0 011.126-1.464 5.22 5.22 0 011.69-.976 5.856 5.856 0 012.081-.375 5.51 5.51 0 012.038.375c.665.226 1.227.55 1.69.976.49.4.867.889 1.127 1.464.29.551.434 1.138.434 1.764v28.242h5.547V9.553a7.857 7.857 0 00-.865-3.64 9.154 9.154 0 00-2.299-3.006c-.982-.85-2.137-1.513-3.467-1.989-1.3-.5-2.702-.751-4.205-.751a11.96 11.96 0 00-4.248.751c-1.3.476-2.441 1.138-3.424 1.99a9.694 9.694 0 00-2.34 3.004 8.196 8.196 0 00-.824 3.64v18.773c0 .626-.145 1.226-.434 1.802-.26.55-.635 1.04-1.126 1.465-.462.4-1.026.726-1.69.977a6.048 6.048 0 01-2.037.337 6.436 6.436 0 01-2.08-.337 6.328 6.328 0 01-1.691-.977 5.372 5.372 0 01-1.128-1.465 4.329 4.329 0 01-.39-1.802V0zM69.068 37.795h-4.816V0h4.816zM96.418.044c-1.304 0-2.52.237-3.648.709a9.665 9.665 0 00-3.012 2.014 9.166 9.166 0 00-1.994 2.947 9.051 9.051 0 00-.752 3.654l-.084-1.349-.084 20.39c0 .625-.126 1.226-.377 1.802-.226.55-.55 1.04-.977 1.465-.401.4-.892.726-1.469.977a4.63 4.63 0 01-1.767.337c-.627 0-1.23-.112-1.807-.337a5.357 5.357 0 01-1.467-.977 5.35 5.35 0 01-.978-1.465 4.86 4.86 0 01-.34-1.803L77.746 0H72.93l-.084 28.408c0 1.302.24 2.529.717 3.68a9.76 9.76 0 002.03 2.967 9.78 9.78 0 002.973 2.027 9.58 9.58 0 003.688.713c1.304 0 2.52-.237 3.648-.713a9.66 9.66 0 003.012-2.027 9.23 9.23 0 001.994-2.967c.502-1.151.746-2.378.752-3.68l.084-20.389.084 1.35c0-.622.126-1.218.377-1.79a4.389 4.389 0 01.979-1.455c.4-.398.89-.722 1.466-.97a4.656 4.656 0 011.768-.335c.627 0 1.23.11 1.807.334.552.249 1.04.573 1.466.971.402.423.728.908.979 1.455a4.79 4.79 0 01.34 1.79l-.084 28.45h4.816l.084-28.45a4.4 4.4 0 01.375-1.79 4.389 4.389 0 01.979-1.455 4.708 4.708 0 011.468-.97 4.656 4.656 0 011.768-.335c.627 0 1.23.11 1.807.334.552.249 1.04.573 1.466.971.402.423.728.908.979 1.455.226.572.342 1.168.34 1.79l-.084 28.45h4.814l.084-28.45c0-1.294-.238-2.511-.715-3.655a9.694 9.694 0 00-5.003-4.961 9.638 9.638 0 00-3.688-.709c-1.304 0-2.522.237-3.65.709a9.656 9.656 0 00-3.01 2.014c-.12.118-.226.245-.338.369-.112-.124-.22-.251-.34-.37a9.783 9.783 0 00-2.973-2.013 9.638 9.638 0 00-3.687-.709zM132.658 0c-1.31 0-2.545.25-3.704.755a9.294 9.294 0 00-2.986 2.004 9.693 9.693 0 00-2.041 3.023c-.479 1.134-.718 2.357-.718 3.667v18.898c0 1.31.24 2.544.718 3.703a9.825 9.825 0 002.041 2.986 9.826 9.826 0 002.986 2.042 9.606 9.606 0 003.704.717c1.31 0 2.531-.239 3.665-.717a9.702 9.702 0 003.025-2.042 9.289 9.289 0 002.002-2.986 9.189 9.189 0 00.757-3.703V9.449c0-1.31-.253-2.533-.757-3.667a9.18 9.18 0 00-2.002-3.023 9.193 9.193 0 00-3.025-2.004C135.189.25 133.968 0 132.658 0zm0 4.837c.63 0 1.22.126 1.775.378.58.227 1.072.554 1.475.982.428.403.757.895.983 1.475.252.554.377 1.147.377 1.777v18.898c0 .63-.125 1.234-.377 1.814a4.452 4.452 0 01-.983 1.474c-.403.403-.895.73-1.475.982a4.64 4.64 0 01-1.775.34c-.63 0-1.235-.113-1.814-.34a5.386 5.386 0 01-1.475-.982 5.383 5.383 0 01-.982-1.474 4.936 4.936 0 01-.341-1.814V9.449c0-.63.115-1.223.341-1.777.252-.58.579-1.072.982-1.475a4.45 4.45 0 011.475-.982 4.5 4.5 0 011.814-.378z" style="line-height:1.25;-inkscape-font-specification:Optien" font-weight="400" font-size="10.583" font-family="Optien" letter-spacing="0" word-spacing="0" />
</svg>